<?xml version="1.0" encoding="UTF-8" standalone="no"?>
<!-- Generator: Adobe Illustrator 14.0.0, SVG Export Plug-In . SVG Version: 6.00 Build 43363)  -->

<svg
   xmlns:dc="http://purl.org/dc/elements/1.1/"
   xmlns:cc="http://creativecommons.org/ns#"
   xmlns:rdf="http://www.w3.org/1999/02/22-rdf-syntax-ns#"
   xmlns:svg="http://www.w3.org/2000/svg"
   xmlns="http://www.w3.org/2000/svg"
   xmlns:sodipodi="http://sodipodi.sourceforge.net/DTD/sodipodi-0.dtd"
   xmlns:inkscape="http://www.inkscape.org/namespaces/inkscape"
   version="1.1"
   x="0px"
   y="0px"
   width="509.8714"
   height="157.29874"
   viewBox="0 0 509.8714 157.29874"
   enable-background="new 0 0 470.425 277.104"
   xml:space="preserve"
   id="svg3177"
   inkscape:version="0.48.5 r10040"
   sodipodi:docname="obvody.svg"><metadata
   id="metadata3367"><rdf:RDF><cc:Work
       rdf:about=""><dc:format>image/svg+xml</dc:format><dc:type
         rdf:resource="http://purl.org/dc/dcmitype/StillImage" /></cc:Work></rdf:RDF></metadata><defs
   id="defs3365" /><sodipodi:namedview
   pagecolor="#ffffff"
   bordercolor="#666666"
   borderopacity="1"
   objecttolerance="10"
   gridtolerance="10"
   guidetolerance="10"
   inkscape:pageopacity="0"
   inkscape:pageshadow="2"
   inkscape:window-width="1842"
   inkscape:window-height="1051"
   id="namedview3363"
   showgrid="false"
   fit-margin-top="0"
   fit-margin-left="0"
   fit-margin-right="0"
   fit-margin-bottom="0"
   inkscape:zoom="2.0382353"
   inkscape:cx="153.49806"
   inkscape:cy="51.37777"
   inkscape:window-x="1911"
   inkscape:window-y="-9"
   inkscape:window-maximized="1"
   inkscape:current-layer="svg3177"
   showborder="true" />
<g
   id="Layer_4"
   transform="translate(-92.059449,-101.7325)">
	<path
   d="m 143.961,201.507 -4.323,-5.23 -4.216,-3.202 -0.16,-4.27 -1.601,-2.081 -2.562,-0.587 -3.789,-2.295 -9.606,0.054 -5.39,0.907 -2.936,-1.175 -0.519,-0.071 c 0.095,1.171 -0.704,3.88 0.405,3.722 1.724,-0.247 1.128,2.777 1.257,3.749 0.343,2.571 2.102,0.933 2.777,2.545 0.499,1.193 -0.874,2.794 -0.515,4.227 0.493,1.969 2.517,1.527 3.856,2.768 1.298,1.204 0.483,3.113 1.666,4.112 1.187,1 2.883,1.264 4.404,1.337 0.305,0.016 -0.382,-1.064 -0.053,-1.132 1.353,-0.279 2.828,0.335 3.707,1.292 1.037,1.13 2.563,1.653 2.466,2.934 -0.088,1.13 -0.218,1.465 1.118,2.082 1.753,0.81 1.077,2.108 2.045,3.398 0.638,0.853 1.875,1.008 2.458,1.91 0.861,1.33 -0.456,2.162 1.267,3.289 1.328,0.869 2.512,-0.301 3.485,0.313 1.387,0.873 2.678,1.925 3.674,3.193 1.653,2.107 -0.159,4.644 1.837,6.211 0.542,0.424 1.031,1.043 1.615,1.5 l 3.023,-6.177 0.48,-2.669 2.241,-2.829 -0.32,-4.749 4.43,-3.202 0.854,-2.401 -7.205,-1.228 -5.87,-6.245 z"
   id="path3180"
   inkscape:connector-curvature="0"
   style="fill:#ffffff;stroke:#b2b2b2" />
	<g
   id="g3182">
		<path
   d="m 105.408,145.431 c 0.063,-0.029 0.123,-0.06 0.194,-0.085 -0.102,0.036 -0.161,0.062 -0.194,0.085 z"
   id="path3184"
   inkscape:connector-curvature="0"
   style="fill:#ffffff;stroke:#b2b2b2" />
		<path
   d="m 131.313,163.563 4.483,-1.335 2.668,1.229 2.135,-1.922 2.135,-2.882 -1.387,-2.988 -3.629,-1.121 -4.696,0.48 -3.842,-1.867 -3.416,1.12 -3.949,-3.736 -1.228,-4.429 -2.402,-2.295 0.801,-2.828 -0.062,-1.961 c -0.196,-0.207 -0.436,-0.417 -0.753,-0.539 -0.634,-0.244 -3.412,0.082 -4.111,0.112 -3.559,0.151 -2.287,1.59 -3.854,3.531 -0.41,0.508 -0.33,-1.536 -1.688,0.514 -1.021,1.543 -1.576,0.19 -2.246,0.992 -0.417,0.499 0.549,1.673 -0.337,1.85 -0.015,-0.007 -0.706,0.062 -0.526,-0.056 -0.766,0.351 -0.939,0.97 -0.987,1.595 l 3.036,3.941 1.761,3.096 5.978,3.629 2.775,9.66 10.193,0.16 3.148,-3.95 z"
   id="path3186"
   inkscape:connector-curvature="0"
   style="fill:#ffffff;stroke:#b2b2b2" />
	</g>
	<path
   d="m 130.086,180.213 4.803,1.654 c 0,0 3.949,0.907 3.843,0.694 -0.107,-0.214 3.309,-2.563 3.309,-2.563 l 4.91,0.268 2.028,-1.121 2.882,1.654 3.896,4.696 3.629,-0.267 -0.48,-3.255 7.898,-3.95 1.975,-2.614 0.64,-3.789 -4.376,-2.563 -4.59,-0.8 -13.501,-9.446 -4.216,-0.16 -2.135,2.882 -2.135,1.922 -2.668,-1.229 -4.483,1.335 -2.935,3.789 3.149,5.443 -0.054,5.337 -1.389,2.083 z"
   id="path3188"
   inkscape:connector-curvature="0"
   style="fill:#ffffff;stroke:#b2b2b2" />
	<polygon
   points="183.08,128.927 188.523,127.806 190.285,130.208 190.711,134.744 191.672,138.373 189.431,141.948 188.097,146.432 184.201,148.727 183.987,151.074 179.451,150.486 172.94,147.712 172.086,140.24 169.578,137.732 170.218,135.17 173.154,133.036 175.715,131.382 179.825,131.435 "
   id="polygon3190"
   style="fill:#ffffff;stroke:#b2b2b2" />
	<polygon
   points="217.502,134.797 212.966,132.342 207.896,135.811 201.919,139.28 202.933,146.484 199.464,149.474 200.852,152.622 201.332,156.091 204.801,155.557 206.882,153.049 212.913,153.849 219.05,148.727 220.331,145.364 222.252,142.695 221.505,138.586 228.656,138.373 233.299,140.881 236.128,138.373 228.123,130.955 223.64,132.342 219.851,130.955 "
   id="polygon3192"
   style="fill:#ffffff;stroke:#b2b2b2" />
	<polygon
   points="196.208,165.537 196.422,161.48 203.039,162.869 204.534,168.205 203.573,171.087 205.494,173.969 207.736,174.075 208.696,177.277 217.128,185.069 220.864,185.283 224.173,189.445 215.634,191.58 211.898,190.727 209.657,195.315 202.719,190.086 197.169,182.294 192.366,179.732 194.927,174.609 192.792,171.301 193.433,167.458 "
   id="polygon3194"
   style="fill:#ffffff;stroke:#b2b2b2" />
	<polygon
   points="236.875,170.98 233.993,175.677 234.313,182.188 239.115,189.339 239.543,197.131 245.413,194.889 250.109,187.204 254.806,183.788 254.06,171.193 251.07,169.379 248.723,170.554 244.453,169.486 239.862,172.154 "
   id="polygon3196"
   style="fill:#ffffff;stroke:#b2b2b2" />
	<polygon
   points="261.21,176.851 263.345,176.744 265.907,174.93 269.429,176.104 275.3,178.771 279.035,181.014 282.345,178.665 286.613,179.626 288.108,181.653 287.894,184.535 289.389,188.058 287.36,193.608 281.384,190.619 277.221,192.861 271.563,193.074 262.384,188.698 254.806,183.788 254.06,171.193 258.329,171.193 "
   id="polygon3198"
   style="fill:#ffffff;stroke:#b2b2b2" />
	<polygon
   points="239.97,218.691 234.313,225.202 234.419,230.005 239.115,229.578 242.852,230.538 246.267,228.938 250.644,224.562 257.901,226.482 261.424,224.241 265.053,224.027 263.985,218.691 264.946,214.315 258.009,211.006 254.38,208.018 250.964,208.338 246.267,206.523 243.172,209.618 240.184,211.434 "
   id="polygon3200"
   style="fill:#ffffff;stroke:#b2b2b2" />
	<polygon
   points="291.522,205.67 295.152,204.709 302.624,208.871 303.157,211.646 307.96,211.006 313.297,205.242 311.803,201.507 308.707,201.827 306.68,198.731 304.438,196.276 298.888,196.383 292.271,188.592 289.389,188.058 287.36,193.608 287.253,196.917 289.495,200.226 288.962,203.748 "
   id="polygon3202"
   style="fill:#ffffff;stroke:#b2b2b2" />
	<path
   d="m 267.931,145.574 c -0.697,-1.409 -1.07,0.074 -1.684,-0.614 -2.106,-2.366 0.914,-1.951 0.883,-1.92 0.656,-0.676 -0.293,-1.782 1.694,-2.528 0.798,-0.299 1.032,1.402 1.292,-0.47 0.209,-1.51 2.528,-0.219 3.58,-1.307 1.975,-2.044 -0.422,-0.513 0.041,-1.7 0.277,-0.716 1.57,0.312 0.887,-1.041 -0.59,-1.165 1.094,-0.758 1.609,-1.24 0.531,-0.499 -1.422,-2.628 -2.872,-3.999 l -3.72,3.188 -7.044,2.241 -1.388,3.949 -4.696,2.775 -4.056,4.056 -0.641,1.921 2.455,3.309 2.774,1.067 0.961,-2.561 5.123,-0.215 3.95,-2.134 1.521,-1.171 c -0.296,-0.7 -0.624,-1.516 -0.669,-1.606 z"
   id="path3204"
   inkscape:connector-curvature="0"
   style="fill:#ffffff;stroke:#b2b2b2" />
</g>
<g
   id="Layer_5"
   transform="translate(-92.059449,-101.7325)">
	<path
   d="m 129.232,153.369 3.682,1.601 4.803,-0.16 3.042,0.961 1.601,-4.964 -1.761,-2.08 -0.48,-4.003 -5.604,-2.882 -2.744,-3.188 c -0.697,0.354 -1.555,0.291 -2.328,0.819 -0.156,0.108 0.373,0.621 0.238,0.796 -0.033,0.043 -3.266,-2.969 -3.522,-3.175 -2.557,-2.058 -0.907,0.027 -2.185,0.834 0.557,-0.352 -2.725,-1.991 -3.623,0.479 -0.565,1.553 -0.789,1.342 -1.207,0.866 v 1.768 l -0.801,2.882 2.082,2.241 1.281,4.483 4.002,3.683 3.524,-0.961 z"
   id="path3207"
   inkscape:connector-curvature="0"
   style="fill:#ffffff;stroke:#b2b2b2" />
	<path
   d="m 228.72,115.447 c -0.83,-1.018 -1.264,-2.383 -1.021,-3.661 0.2,-1.051 1.503,-0.782 0.908,-2.144 -0.308,-0.703 -2.437,-2.043 -2.943,-1.811 -3.018,1.377 -0.985,-0.427 -1.774,-1.621 -0.718,-1.083 -1.612,1.827 -1.553,1.83 -0.612,-0.034 -1.841,-0.022 -1.307,-0.909 1.396,-2.319 -7.984,-1.205 -5.351,1.182 0.944,0.856 1.055,-1.024 1.755,0.346 0.633,1.237 -1.1,2.234 -1.289,3.368 -0.124,0.736 1.468,2.867 0.407,3.31 -1.235,0.515 -2.552,0.127 -3.839,-0.232 l 0.252,4.962 2.081,5.443 1.921,3.683 2.722,1.601 0.32,-5.124 1.761,-5.443 4.163,-0.48 2.811,-4.273 c -0.007,-0.01 -0.015,-0.017 -0.024,-0.027 z"
   id="path3209"
   inkscape:connector-curvature="0"
   style="fill:#ffffff;stroke:#b2b2b2" />
	<polygon
   points="203.039,162.815 205.921,158.973 204.8,155.771 201.438,156.091 201.118,152.889 199.517,149.526 202.879,146.324 201.918,139.28 195.834,137.839 191.512,138.479 189.431,142.002 188.15,146.324 184.147,149.046 184.467,153.209 187.99,155.13 188.31,157.691 193.593,158.012 196.475,161.854 "
   id="polygon3211"
   style="fill:#ffffff;stroke:#b2b2b2" />
	<polygon
   points="184.948,175.463 178.704,174.022 174.861,177.704 168.617,175.463 169.417,171.621 165.255,168.738 170.698,163.775 176.142,164.256 178.704,162.815 183.667,162.494 185.268,166.337 188.47,168.099 193.273,167.938 192.792,171.621 194.714,174.822 192.473,179.626 "
   id="polygon3213"
   style="fill:#ffffff;stroke:#b2b2b2" />
	<polygon
   points="127.631,184.108 130.993,186.03 133.555,186.99 135.315,189.072 135.636,193.395 139.479,196.116 150.045,207.964 156.93,209.245 160.292,198.678 159.812,195.315 160.452,192.434 159.171,185.55 155.809,185.71 151.646,180.906 148.764,179.306 146.363,180.267 142.2,180.267 138.518,182.668 130.032,180.267 "
   id="polygon3215"
   style="fill:#ffffff;stroke:#b2b2b2" />
	<polygon
   points="197.436,216.289 193.273,212.607 189.591,208.444 185.108,207.483 183.507,209.726 180.305,211.166 178.543,205.082 175.181,200.76 173.1,196.116 169.738,192.754 171.659,192.273 176.782,192.914 179.984,192.434 183.187,193.074 190.711,193.875 198.076,194.195 202.879,190.513 209.764,195.156 208.803,197.558 209.283,204.121 207.362,210.045 206.882,211.646 202.559,213.407 202.399,217.73 "
   id="polygon3217"
   style="fill:#ffffff;stroke:#b2b2b2" />
	<polygon
   points="220.811,185.39 223.853,189.392 230.097,192.754 230.577,197.558 235.06,198.678 239.543,197.077 239.063,189.392 234.419,182.188 233.939,175.943 236.821,171.141 230.417,168.099 227.055,168.419 224.013,171.94 219.37,170.82 215.047,174.022 208.002,174.022 208.643,177.064 216.968,185.069 "
   id="polygon3219"
   style="fill:#ffffff;stroke:#b2b2b2" />
	<polygon
   points="228.816,160.733 230.897,153.529 233.459,155.771 240.184,155.61 247.708,162.015 248.988,165.057 249.309,168.259 250.59,169.379 248.509,170.34 244.186,169.699 239.543,172.101 230.417,168.099 232.338,163.136 "
   id="polygon3221"
   style="fill:#ffffff;stroke:#b2b2b2" />
	<polygon
   points="218.89,148.727 213.126,153.849 218.89,157.531 228.816,160.733 230.897,153.529 233.939,150.807 238.262,150.807 241.784,149.526 247.548,148.886 245.626,146.164 241.944,143.923 240.504,138.959 235.86,138.479 233.299,141.041 228.816,138.479 221.611,138.799 222.091,142.481 220.17,145.523 "
   id="polygon3223"
   style="fill:#ffffff;stroke:#b2b2b2" />
	<path
   d="m 248.188,202.36 -0.16,-3.683 -2.882,-3.682 -10.086,3.682 -4.483,-1.12 -1.121,2.081 v 5.283 l -3.682,3.683 -3.362,1.921 -1.601,6.404 -6.724,8.005 -1.102,4.65 c 1.874,-0.34 1.961,1.165 2.446,1.342 1.673,0.604 4.665,-0.733 3.91,2.1 -0.765,2.869 1.265,0.82 2.489,0.661 0.883,-0.115 2.165,1.251 2.349,-0.401 -0.078,-0.566 0.036,-1.085 0.321,-1.566 0.052,0.487 3.402,0.643 3.1,0.539 1.257,0.434 1.993,1.574 3.199,2.088 0.176,0.017 0.352,0.025 0.528,0.038 l 3.253,-4.486 -0.48,-4.483 5.924,-6.564 0.48,-7.204 2.561,-1.921 3.043,-3.042 2.08,-4.325 z"
   id="path3225"
   inkscape:connector-curvature="0"
   style="fill:#ffffff;stroke:#b2b2b2" />
	<polygon
   points="269.962,205.563 267.241,208.444 270.763,208.444 274.125,212.127 277.647,214.208 282.61,214.368 287.253,213.247 290.296,209.085 291.256,205.723 289.015,203.481 289.495,200.279 287.093,197.077 287.253,193.555 281.489,190.833 277.167,193.074 271.724,193.395 272.524,196.597 270.282,200.6 "
   id="polygon3227"
   style="fill:#ffffff;stroke:#b2b2b2" />
	<polygon
   points="279.408,230.219 280.849,227.497 283.892,225.255 281.81,222.053 277.647,221.732 275.565,217.57 277.647,214.208 274.125,212.127 270.763,208.444 267.241,208.444 267.081,211.166 265.159,214.208 264.198,218.691 264.839,224.135 270.442,224.135 275.245,228.137 "
   id="polygon3229"
   style="fill:#ffffff;stroke:#b2b2b2" />
	<polygon
   points="301.823,192.114 304.544,195.636 305.825,197.878 308.707,201.88 311.749,201.56 313.351,199.318 317.032,197.718 319.755,193.555 325.679,190.993 327.279,186.03 324.558,184.749 316.872,186.03 314.791,183.309 309.828,182.508 306.306,180.906 303.264,177.864 301.022,180.586 299.261,186.51 "
   id="polygon3231"
   style="fill:#ffffff;stroke:#b2b2b2" />
	<polygon
   points="346.812,201.08 343.93,198.998 339.447,199.959 334.483,197.397 335.124,193.715 334.644,184.589 342.009,182.508 347.292,185.39 346.491,187.791 349.854,197.878 352.095,201.399 "
   id="polygon3233"
   style="fill:#ffffff;stroke:#b2b2b2" />
	<polygon
   points="307.587,211.006 303.264,211.646 299.901,218.211 297.82,221.573 301.343,223.654 306.306,223.494 306.626,220.612 310.948,217.891 315.592,217.891 317.673,215.009 322.636,214.368 323.757,211.807 327.119,209.726 332.563,208.765 332.563,204.602 330.642,203.321 325.358,201.72 323.437,204.602 318.794,205.563 315.752,207.163 313.511,205.082 "
   id="polygon3235"
   style="fill:#ffffff;stroke:#b2b2b2" />
	<path
   d="m 146.736,148.886 2.295,-2.882 2.935,-1.975 2.295,-1.814 0.107,-2.508 -2.402,-2.936 -0.587,-4.803 -4.108,-4.314 c -0.62,0.761 -1.259,1.467 -1.262,1.45 0.441,2.622 -1.616,0.196 -1.842,0.056 -1.986,-1.233 -2.564,3.089 -3.031,4.063 -0.774,1.614 -1.613,1.594 -3.172,0.92 -0.028,-0.275 -0.082,-0.547 -0.162,-0.813 -2.045,0.208 -1.549,1.24 -3.666,0.291 -1.487,-0.667 -1.201,3.412 -1.427,3.958 -0.239,0.575 -0.561,0.88 -0.927,1.069 l 2.625,3.086 5.764,2.936 0.213,4.27 2.082,2.027 4.27,-2.081 z"
   id="path3237"
   inkscape:connector-curvature="0"
   style="fill:#ffffff;stroke:#b2b2b2" />
	<path
   d="m 164.615,137.679 -1.601,-4.002 -1.761,-2.082 -0.32,-4.002 -4.612,-5.299 c -0.655,0.057 -1.255,0.163 -1.53,0.477 -0.802,0.913 1.772,1.343 -0.007,2.478 -1.367,0.872 0.146,1.234 -0.991,2.48 -3.312,3.63 -3.227,-1.634 -5.434,-1.906 0.3,0.037 -0.401,0.994 -1.114,1.865 l 4.082,4.388 0.8,4.963 2.082,2.722 0.16,2.562 7.845,-1.762 2.401,-2.882 z"
   id="path3239"
   inkscape:connector-curvature="0"
   style="fill:#ffffff;stroke:#b2b2b2" />
	<path
   d="m 160.932,127.592 0.16,3.949 1.814,1.814 1.815,4.483 4.856,-0.106 0.64,-2.562 2.936,-2.135 -2.082,-2.775 1.014,-6.778 -2.067,-2.412 c -0.31,1.526 -0.242,-0.427 -1.145,0.083 -1.193,0.673 -0.335,1.453 -2.755,0.78 -0.907,-0.318 -1.843,-0.492 -2.809,-0.517 -0.294,0.352 -0.595,0.7 -0.901,1.042 -1.811,-0.001 -1.687,-1.357 -3.97,-0.431 -0.461,0.188 -1.265,0.196 -2.016,0.256 l 4.51,5.309 z"
   id="path3241"
   inkscape:connector-curvature="0"
   style="fill:#ffffff;stroke:#b2b2b2" />
	<path
   d="m 177.903,123.109 -0.961,-2.882 -0.412,-2.779 c -0.929,0.126 -1.043,-0.964 -2.067,-0.79 -1.064,0.18 -1.358,1.392 -2.313,1.75 -1.5,0.563 -1.542,-0.75 -1.992,1.899 -0.057,0.332 -0.103,0.584 -0.143,0.782 l 2.124,2.499 -0.96,6.724 1.921,2.722 2.562,-1.281 4.163,-0.32 3.042,-2.401 -1.281,-4.002 -3.683,-1.921 z"
   id="path3243"
   inkscape:connector-curvature="0"
   style="fill:#ffffff;stroke:#b2b2b2" />
	<path
   d="m 239.759,121.633 c -1.665,-0.074 -4.83,-2.911 -5.996,-1.582 -1.918,2.184 -2.278,1.533 -2.092,-1.288 0.159,-2.414 -1.551,-1.698 -2.886,-3.247 l -2.903,4.337 -4.216,0.107 -1.814,5.71 v 5.284 l 3.789,1.388 4.483,-1.388 7.738,7.525 4.856,0.374 0.054,-5.657 -1.761,-4.589 0.748,-6.974 z"
   id="path3245"
   inkscape:connector-curvature="0"
   style="fill:#ffffff;stroke:#b2b2b2" />
	<path
   d="m 210.618,229.471 -2.775,-5.336 -0.533,-13.129 -4.697,2.241 v 4.59 l -5.443,-1.814 -3.949,-3.629 -3.522,-4.056 -4.483,-0.961 -1.601,2.241 -3.202,1.281 -0.534,4.803 -1.388,2.989 5.443,1.707 3.629,13.342 5.337,3.522 5.55,7.686 2.828,3.71 c 0.476,-0.333 1.038,-0.618 1.648,-0.959 1.876,-1.056 -0.517,-4.011 2.279,-3.722 0.925,0.095 6.129,3.058 6.128,0.738 0,-1.297 -1.844,-0.648 -0.774,-2.339 0.472,-0.556 0.835,-1.172 1.092,-1.843 0.277,-1.316 -0.495,-6.459 0.091,-9.206 l -1.124,-1.856 z"
   id="path3247"
   inkscape:connector-curvature="0"
   style="fill:#ffffff;stroke:#b2b2b2" />
	<g
   id="g3249">
		<path
   d="m 200.798,248.31 -8.005,-11.047 -5.123,-3.522 -3.683,-13.128 -5.283,-1.921 -4.963,0.8 -3.682,2.082 -4.323,0.8 -6.084,4.964 -1.601,5.764 -2.722,2.241 -0.088,0.498 c 0.18,0.057 0.383,0.065 0.62,0.01 2,-0.467 2.418,-0.207 2.695,1.819 0.259,1.9 1.639,0.611 1.773,2.62 0.113,1.68 0.175,2.659 2.133,2.664 1.467,0.004 2.611,1.608 3.367,2.625 1.077,1.45 3.123,0.945 3.72,2.564 0.342,0.928 1.861,1.027 1.621,1.858 -0.319,1.105 -2.097,0.454 -2.259,1.302 0.052,-0.271 2.812,3.042 2.332,2.932 2.892,0.662 5.896,0.619 8.794,1.25 0.205,0.045 2.752,1.395 2.639,1.814 0.405,-0.418 0.806,-0.84 1.199,-1.269 0.405,0.118 0.818,0.2 1.239,0.25 0.047,-0.457 0.124,-0.912 0.23,-1.361 1.326,-0.666 1.406,1.67 2.527,-0.562 0.649,-1.293 -0.452,-1.63 -0.102,-2.432 0.567,-1.312 3.083,2.219 3.715,2.487 0.955,0.406 3.667,-1.201 3.73,-0.916 0.384,1.711 1.432,0.188 1.614,1.793 0.208,1.831 2.609,1.021 2.892,-0.312 0.273,-1.294 0.002,-2.729 0.166,-4.05 0.127,-1.024 0.568,-1.631 1.188,-2.115 l -0.276,-0.502 z"
   id="path3251"
   inkscape:connector-curvature="0"
   style="fill:#ffffff;stroke:#b2b2b2" />
		<path
   d="m 182.675,257.299 c -0.028,0.029 -0.055,0.06 -0.083,0.089 0.052,-0.021 0.074,-0.053 0.083,-0.089 z"
   id="path3253"
   inkscape:connector-curvature="0"
   style="fill:#ffffff;stroke:#b2b2b2" />
	</g>
</g>
<g
   id="Layer_6"
   transform="translate(-92.059449,-101.7325)">
	<polygon
   points="188.257,157.691 183.4,162.441 185.108,165.857 188.523,167.992 193.006,167.992 195.995,165.217 196.422,161.588 193.646,158.172 "
   id="polygon3256"
   style="fill:none;stroke:#b2b2b2" />
	<polygon
   points="281.677,221.867 277.755,221.573 275.513,217.811 277.541,214.102 282.45,214.528 283.679,218.265 "
   id="polygon3258"
   style="fill:none;stroke:#b2b2b2" />
	<polygon
   points="348.466,183.575 347.505,185.496 342.169,182.481 343.797,178.452 349.827,177.225 352.362,181.654 "
   id="polygon3260"
   style="fill:none;stroke:#b2b2b2" />
</g>
<path
   style="fill:#ffffff;stroke:#b2b2b2;stroke-width:1"
   inkscape:connector-curvature="0"
   id="path3263"
   d="m 196.39955,60.689483 c -1.97,1.793 -1.36,3.219 -4.741,1.326 -2.191,-1.227 -2.168,-2.67 -2.364,-4.289 l -0.664,0.475 -14.249,7.685 -5.604,0.32 -2.402,3.202 2.883,5.764 h 1.92 l 2.723,-1.602 7.365,2.722 5.764,3.042 3.201,-2.562 4.003,1.121 1.44,-1.922 -0.16,-2.081 -2.241,-3.362 3.042,-2.401 2.242,-8.806 -0.031,-0.234 c -0.127,0.33 -0.282,0.649 -0.519,0.936 -0.52,0.254 -1.056,0.475 -1.608,0.666 z" /><path
   style="fill:#ffffff;stroke:#b2b2b2;stroke-width:1"
   inkscape:connector-curvature="0"
   id="path3265"
   d="m 211.73855,70.421483 2.882,-6.724 5.229,-7.365 3.843,-1.28 0.948,-3.149 c -0.922,-0.489 -2.939,-0.167 -2.707,0.987 -0.531,-2.611 1.339,-4.679 -2.405,-3.599 -1.19,0.344 -2.358,-0.856 -3.026,-1.599 0.205,0.227 -1.289,-2.596 -0.715,-2.356 -1.284,-0.534 -2.276,1.203 -3.199,-0.431 -0.348,-0.779 -0.97,-1.076 -1.865,-0.893 -1.153,0.08 -3.374,-1.793 -4.038,-1.022 -0.03,0.035 -7.012,-3.642 -5.32,0.906 0.308,0.821 1.632,0.438 2.073,1.15 0.385,0.727 0.622,1.494 0.713,2.302 0.354,1.922 0.773,2.421 2.653,3.003 1.861,0.576 1.171,3.912 1.05,5.197 -0.117,1.295 -1.855,-1.568 -1.867,-1.571 -0.422,-0.119 -0.281,1.158 -0.619,1.305 -0.949,0.415 -2.521,-0.738 -2.855,0.695 -0.439,1.875 -1.586,-0.267 -2.73,0.676 -0.691,0.57 -0.879,1.354 -1.138,2.113 l 0.073,0.554 -2.455,8.859 -3.096,2.027 2.027,3.843 0.215,2.135 2.668,-2.135 9.926,-1.28 3.735,-2.348 z" /><path
   style="fill:#ffffff;stroke:#b2b2b2;stroke-width:1"
   inkscape:connector-curvature="0"
   id="path3267"
   d="m 236.17955,74.371483 5.251,-5.506 c -0.657,-0.675 -1.284,-1.208 -1.813,-2.344 -0.197,-0.42 -2.954,-5.819 -3.551,-4.096 -0.471,1.353 -4.463,-1.761 -3.865,-3.004 0.842,-1.763 4.561,-0.235 4.892,-2.161 0.079,-0.453 4.62,-1.639 1.743,-3.011 -2.725,-1.299 1.323,-2.684 -0.7,-4.389 -2.624,-2.209 -1.854,1.292 -3.823,2.393 -1.486,0.83 -4.217,-0.467 -6.287,-0.019 -1.007,0.218 -1.643,1.313 -2.746,1.261 -0.492,-0.023 -0.129,-1.154 -0.383,-1.412 -0.098,-0.1 -0.23,-0.179 -0.383,-0.242 l -0.981,3.157 -3.522,1.28 -5.443,7.365 -2.562,6.884 0.96,3.522 -1.761,2.081 3.042,3.042 3.522,1.602 4.963,0.801 2.081,2.722 3.683,-0.641 -1.12,-2.081 4.322,-5.764 4.481,-1.44 z" /><path
   style="fill:#ffffff;stroke:#b2b2b2;stroke-width:1"
   inkscape:connector-curvature="0"
   id="path3269"
   d="m 259.03955,71.220483 c -0.467,-0.051 -0.805,-0.266 -0.788,-1.006 0.06,-2.488 -2.358,0.396 -3.414,-0.146 -2.32,-1.19 -0.557,-4.292 -3.893,-4.808 -0.667,-0.103 -1.54,0.58 -1.589,1.204 -0.084,1.035 1.525,0.142 1.971,0.663 1.944,2.275 -2.88,1.115 -3.918,1.836 -1.824,1.268 -3.101,3.483 -5.288,0.682 -0.226,-0.29 -0.451,-0.535 -0.672,-0.764 l -0.038,0.045 -5.23,5.764 -4.482,1.067 -4.482,5.55 1.067,2.349 4.27,-0.854 2.774,1.175 7.152,-1.175 7.577,-2.027 1.602,-4.057 6.084,-1.28 1.297,-4.218 z" /><path
   style="fill:#ffffff;stroke:#b2b2b2;stroke-width:1"
   inkscape:connector-curvature="0"
   id="path3271"
   d="m 276.32255,85.976483 c -2.209,-1.887 -3.486,-5.805 -1.532,-7.547 1.386,-1.236 -1.046,-1.164 -1.344,-1.942 -0.144,-0.369 0.959,-4.237 -1.187,-2.8 -0.612,0.408 0.445,2.982 -2.263,0.922 -1.482,-1.128 -2.853,-1.872 -4.537,-2.132 l -2.437,2.987 -0.854,3.416 4.83,5.497 6.885,3.602 2.439,-2.003 z" /><path
   style="fill:#ffffff;stroke:#b2b2b2;stroke-width:1"
   inkscape:connector-curvature="0"
   id="path3273"
   d="m 280.50755,100.4435 c 1.164,0.622 1.972,-0.208 2.756,-0.899013 1.067,-0.942003 1.521,-0.260003 2.634,-0.731003 -0.631,0.269 0.57,-2.183 -0.128,-2.759 -1.317,-1.087 -0.982,-3.236 -1.175,-4.717 -0.421,-3.229001 -1.134,-2.180001 -3.563,-2.341001 -1.9,-0.129 -0.359,-1.809 -2.437,-1.971 -0.834,-0.064 -1.646,-0.485 -2.354,-1.113 l -2.517,2.067 -6.725,-3.682 2.161,5.684 3.362,4.082001 0.961,1.281 1.44,3.683 0.254,0.422003 c 0.64,0.327 0.688,1.263013 2.206,0.469 1.43,-0.746003 1.922,-0.122 3.125,0.525013 z" /><path
   style="fill:#ffffff;stroke:#b2b2b2;stroke-width:1"
   inkscape:connector-curvature="0"
   id="path3275"
   d="m 269.55955,106.1145 -0.719,-0.79 -4.803,-3.415 -4.056,-2.455013 -5.23,-0.214003 -2.882,-2.135 -4.482,1.067 -5.017,-2.348 -2.455,2.134 -1.174,3.416016 1.814,1.281 -0.107,4.269 11.741,3.202 4.804,-0.854 5.028,2.593 c 1.752,-0.503 3.458,-0.948 3.903,-1.178 2.373,-1.22 0.355,-2.98 1.063,-4.185 0.116,-0.191 1.626,0.117 2.572,-0.388 z" /><path
   style="fill:#ffffff;stroke:#b2b2b2;stroke-width:1"
   inkscape:connector-curvature="0"
   id="path3277"
   d="m 225.50755,113.1165 -2.029,3.202 2.029,5.656 9.392,5.338 4.59,4.269 1.542,4.088 c 2.123,-0.487 4.603,1.313 5.068,-2.574 0.216,-1.811 0.641,-5.452 4.038,-3.471 2.137,1.246 4.357,-2.749 4.727,-4.155 0.208,-0.795 -0.926,-2.044 -0.386,-2.737 0.579,-0.741 0.955,-1.117 1.173,-1.632 l -3.994,-0.726 -5.978,0.641 -5.017,-3.202 -3.628,0.747 -6.725,-4.27 0.641,-1.921 -5.443,0.747 z" /><path
   style="fill:#ffffff;stroke:#b2b2b2;stroke-width:1"
   inkscape:connector-curvature="0"
   id="path3279"
   d="m 221.29155,136.3305 -4.644,-7.045 -2.401,-7.524 -4.963,0.16 -3.522,-2.081 -1.761,2.882 -3.203,1.12 v 2.081 l 1.762,2.242 -1.762,4.322 2.723,5.443 3.521,1.441 2.402,5.283 0.166,0.114 c 0.619,-0.621 1.133,-1.084 1.205,-0.974 -1.593,-2.444 2.517,-2.565 3.119,-3.685 1.371,-2.54 5.918,-0.933 7.372,1.085 0.101,0.14 0.195,0.264 0.288,0.38 l -0.302,-5.244 z" /><path
   style="fill:#ffffff;stroke:#b2b2b2;stroke-width:1"
   inkscape:connector-curvature="0"
   id="path3281"
   d="m 207.14855,139.1605 -3.735,-1.281 -2.776,-5.551 2.136,-3.842 -1.815,-2.242 -0.213,-2.454 -4.162,0.96 -4.483,-1.28 -3.415,2.241 -1.281,2.668 -4.696,-2.027 -1.708,3.843 -0.213,3.842 0.854,4.056 v 7.743 c 0.943,-1.03 1.283,-2.077 1.882,-3.395 -0.255,0.563 3.983,0.218 4.141,0.385 2.17,2.358 4.358,0.076 4.849,3.736 0.328,2.461 1.169,0.226 2.305,0.539 1.262,0.349 1.836,1.71 3.161,1.935 3.22,0.541 4.845,-2.373 5.432,2.224 0.106,0.82 -1.161,3.877 0.888,3.559 0.99,-0.153 1.128,-1.485 1.197,-2.149 0.016,-0.869 0.155,-1.722 0.421,-2.553 0.38,-0.155 0.759,-0.322 1.13,-0.498 0.393,-1.205 -1.23,-1.063 0.165,-2.325 0.228,-0.208 1.642,-1.781 2.632,-2.749 l -2.696,-5.385 z" /><g
   id="g3283"
   transform="translate(-92.059449,-101.7325)"
   obvod obvod-3="">
		<path
   style="fill:#ffffff;stroke:#000000;stroke-width:2"
   inkscape:connector-curvature="0"
   id="path3285"
   d="m 101.948,161.191 c 0,-0.018 -0.004,-0.033 -0.005,-0.05 -0.034,-0.01 -0.039,0.002 0.005,0.05 z" />
		<path
   style="fill:#ffffff;stroke:#000000;stroke-width:2"
   inkscape:connector-curvature="0"
   id="path3287"
   d="m 117.947,167.345 -2.892,-9.917 -5.784,-3.305 -1.653,-2.893 -3.199,-4.159 c -0.042,0.626 0.021,1.248 -0.292,1.594 -0.203,0.225 -0.947,-0.662 -1.028,-0.411 -0.16,0.492 -0.527,7.729 -2.403,3.387 -0.427,-0.986 1.019,-1.389 0.731,-2.101 -0.368,-0.909 -1.744,-0.798 -2.107,-1.712 -0.202,-0.509 2.889,-1.751 -0.489,-1.579 -2.24,0.114 -0.243,-3.15 -2.54,-3.839 -3.045,-0.912 -2.042,1.116 -1.229,2.424 1.05,1.686 -2.833,1.482 -1.823,2.657 0.678,0.788 1.678,0.152 2.341,0.743 0.132,0.494 0.217,0.994 0.252,1.503 0.76,1.055 3.362,1.77 1.634,3.575 -1.775,1.854 -0.008,3.211 1.6,4.232 2.411,1.531 -0.521,1.199 0.285,1.937 0.79,0.225 1.591,0.394 2.406,0.507 0.102,0.38 0.163,0.764 0.187,1.153 0.207,0.066 1.628,1.071 1.75,1.152 0.881,0.306 1.74,0.662 2.574,1.068 -0.044,0.382 -0.058,0.765 -0.039,1.149 0.997,0.475 1.132,-0.956 2.417,0.342 0.787,0.797 -0.242,1.1 -0.793,1.701 -1.122,1.226 4.965,1.549 2.256,4.093 -1.579,1.482 -2.837,3.496 -2.801,5.32 0.053,2.666 -5.591,1.023 -2.629,4.917 1.032,1.356 3.385,1.111 4.085,2.285 0.042,0.071 0.066,0.173 0.083,0.288 h 0.425 l 2.892,1.239 5.371,-0.826 h 9.917 l 4.131,-5.784 v -5.371 l -2.892,-5.371 h -10.744 z"
   class="obvod obvod-3" />
	</g><polygon
   style="fill:#ffffff;stroke:#000000;stroke-width:2"
   id="polygon3289"
   points="165.048,168.997 170.833,163.626 170.419,154.123 169.18,150.817 172.898,147.512 172.072,140.075 169.593,137.596 164.635,137.596 162.156,140.488 154.306,142.141 152.24,143.794 148.935,145.859 146.869,148.752 142.324,150.817 141.084,154.949 142.737,158.668 146.869,158.668 152.24,162.386 160.503,168.171 "
   transform="translate(-92.059449,-101.7325)"
   class="obvod obvod-6" /><polygon
   style="fill:#ffffff;stroke:#000000;stroke-width:2"
   id="polygon3291"
   points="189.012,177.674 197.275,182.219 203.06,190.068 197.688,194.2 190.251,193.787 182.401,192.961 179.922,192.135 176.617,192.961 171.659,192.135 164.635,192.961 160.503,192.135 158.851,181.806 162.569,180.152 166.701,178.087 168.767,175.194 174.964,177.674 178.683,173.955 184.88,175.194 "
   transform="translate(-92.059449,-101.7325)"
   class="obvod obvod-18" /><path
   style="fill:#ffffff;stroke:#000000;stroke-width:2"
   inkscape:connector-curvature="0"
   id="path3293"
   d="m 86.623551,103.6235 -3.305,-4.133013 -2.066,-4.957003 -4.131,-3.306 h -4.545 l -4.132,-0.826001 -0.826,2.892001 0.826,3.719 -2.892,7.438016 -1.24,4.958 -4.544,3.305 0.413,4.959 -2.479,2.479 -0.414,2.892 -2.982,6.264 c 0.372,0.285 0.784,0.501 1.275,0.556 0.577,0.064 0.18,-1.453 0.589,-1.698 2.341,-1.416 3.283,1.344 4.351,2.146 0.29,-0.182 0.585,-0.353 0.886,-0.516 0.52,0.798 0.479,3.599 1.595,4.229 l 2.962,-2.716 1.653,-5.784 5.784,-4.958 4.958,-0.826 3.306,-2.065 4.958,-0.827 1.239,-2.892 0.413,-4.959 -1.652,-5.374 z"
   class="obvod obvod-12" /><polygon
   style="fill:#ffffff;stroke:#000000;stroke-width:2"
   id="polygon3295"
   points="225.784,209.075 229.503,204.942 229.089,199.984 230.742,197.919 230.329,192.548 224.132,189.242 215.868,191.309 211.736,190.481 208.844,197.506 209.257,204.116 207.191,209.901 207.604,216.925 208.018,223.948 212.15,233.452 214.215,224.774 220.826,216.925 222.479,210.313 "
   transform="translate(-92.059449,-101.7325)"
   class="obvod obvod-15" /><polygon
   style="fill:#ffffff;stroke:#000000;stroke-width:2"
   id="polygon3297"
   points="224.132,171.89 227.024,168.171 230.329,168.171 232.395,163.213 227.85,159.907 218.76,157.428 212.976,153.71 206.778,152.884 204.712,155.362 205.952,159.081 203.06,162.799 204.712,168.171 203.473,171.063 205.539,173.955 209.257,173.955 215.042,173.955 219.173,170.649 "
   transform="translate(-92.059449,-101.7325)"
   class="obvod obvod-42" /><path
   style="fill:#ffffff;stroke:#000000;stroke-width:2"
   inkscape:connector-curvature="0"
   id="path3299"
   d="m 108.52155,15.618487 1.225,-1.576 c -1.028,-0.187 -1.609,-0.659 -0.058,-3.054 2.413,-3.7269988 -2.688,-0.36 -3.181,-1.0909988 -0.802,-1.19 1.5,-2.47 1.538,-3.638 0.073,-2.239 -1.569,-1.395 -2.507,-1.723 -0.511,-0.178 -1.653,-2.78 -1.416,-2.71 -0.374,-0.109 0.025,1.327 -0.365,1.45 -0.557,-0.225 -1.084,-0.503 -1.58,-0.834 -0.588,0.36 -1.2,0.682 -1.833,0.966 -0.430999,-0.374 -0.799999,-0.796 -1.106999,-1.268 -0.63,-0.053 -1.261,-0.084 -1.894,-0.093 -0.918,-0.334 -1.785,-2.05999989 -2.583,-0.225 -0.546,1.255 1.468,-0.265 -0.226,2.044 -2.306,3.145 3.323,0.954 2.229,2.291 -0.229,0.278 -1.925,0.432 -0.649,1.111 1.124,0.6 2.768,0.372 3.648,1.404 2.613999,3.0569988 -7.336,1.9629988 -7.379,2.9999988 -0.109,2.624 -5.369,3.115 -7.566,3.955 -0.106,0.04 -0.2,0.063 -0.29,0.08 l 0.443,2.803996 0.826,2.892 3.719,1.653 1.239,4.132 5.785,-1.24 0.826,-3.306 2.892999,-0.826 1.239,-3.719 h 3.718 l 3.306,-2.478996 z"
   class="obvod obvod-33" /><polygon
   style="fill:#ffffff;stroke:#000000;stroke-width:2"
   id="polygon3301"
   points="188.186,157.842 183.641,162.386 178.27,162.799 176.204,164.039 170.833,163.626 170.419,159.081 170.419,154.123 169.18,150.817 172.898,147.512 179.509,150.404 184.054,150.817 184.467,153.297 188.186,154.949 "
   transform="translate(-92.059449,-101.7325)"
   class="obvod obvod-30" /><path
   style="fill:#ffffff;stroke:#000000;stroke-width:2"
   inkscape:connector-curvature="0"
   id="path3303"
   d="m 169.25755,38.342483 1.238,-4.132 7.024,-2.066 3.69,-3.208 c -0.584,-0.546 -1.074,-0.962 -1.262,-1.074 -1.292,-0.774 -3.014,-1.127 -4.503,-0.702 -0.807,0.23 -0.247,1.661 -0.632,2.171 -1.192,1.568 -3.17,-1.8 -5,-1.694 -2.258,0.128 -0.842,3.965 -3.193,3.837 -2.918,-0.164 0.014,-1.638 -0.09,-2.906 -0.245,-2.941 -2.205,-2.664 -4.547,-1.908 -2.92,0.942 -2.766,-1.677 -3.04,-3.535 -0.429,-2.89 -2.833,-1.081 -4.521,-0.593 -2.549,0.736 -3.987,-2.765 -6.585,-2.624 -0.071,0.004 -0.15,-0.005 -0.228,-0.013 l -0.666,6.877 1.653,4.545 v 5.785 l 1.239,4.958 3.719,2.479 2.479,2.479 h 3.718 l 0.827,-2.066 3.718,-3.719 4.962,-2.891 z"
   class="obvod obvod-39" /><polygon
   style="fill:#ffffff;stroke:#000000;stroke-width:2"
   id="polygon3305"
   points="247.682,161.974 240.245,155.362 233.635,155.775 230.742,153.297 233.635,150.817 238.18,150.817 241.484,149.578 248.096,148.752 251.813,148.752 254.293,152.057 257.186,153.297 258.425,157.842 258.012,160.733 255.119,160.32 251.4,159.907 "
   transform="translate(-92.059449,-101.7325)"
   class="obvod obvod-45" /><path
   style="fill:#ffffff;stroke:#000000;stroke-width:2"
   inkscape:connector-curvature="0"
   id="path3307"
   d="m 189.28355,57.632483 c -0.094,-0.738 -0.242,-1.513 -0.673,-2.321 -1.271,-2.375 -3.052,-4.485 -5.044,-6.358 -1.463,-1.377 -2.087,0.509 -2.639,-2.536 -0.498,-2.757 -2.92,-1.039 -3.887,0.063 -0.037,0.041 -0.307,-0.573 -0.578,-1.219 l -1.835,1.345 -3.718,2.065 h -4.958 l -0.826,2.893 1.239,4.545 -0.413,2.892 -6.611,-0.826 -3.719,2.066 1.24,2.892 0.412,3.306 4.546,2.892 h 4.545 l 2.479,-3.305 h 5.784 l 10.743,-5.784 3.913,-2.61 z"
   class="obvod obvod-48" /><polygon
   style="fill:#ffffff;stroke:#000000;stroke-width:2"
   id="polygon3309"
   points="272.472,196.68 270.406,200.397 269.993,205.356 267.101,208.248 267.101,211.141 265.035,214.445 258.012,210.727 254.293,207.835 251.4,208.248 246.029,206.596 248.096,202.464 248.096,198.745 245.203,194.613 248.096,190.068 250.162,187.177 254.706,183.458 262.144,188.416 271.646,192.961 "
   transform="translate(-92.059449,-101.7325)"
   class="obvod obvod-51" /><polygon
   style="fill:#ffffff;stroke:#000000;stroke-width:2"
   id="polygon3311"
   points="282.389,214.445 287.347,213.206 290.238,209.075 291.478,205.356 295.196,204.529 302.634,208.661 303.047,211.967 300.155,218.164 296.022,224.361 288.999,226.428 284.042,225.188 281.563,221.883 283.651,218.265 "
   transform="translate(-92.059449,-101.7325)"
   class="obvod obvod-57" /><path
   style="fill:#ffffff;stroke:#000000;stroke-width:2"
   inkscape:connector-curvature="0"
   id="path3313"
   d="m 211.81355,70.157483 1.239,3.718 -2.479,2.893 -1.652,2.065 -1.653,5.785 2.479,5.784 c 0,0 4.132,4.132001 2.893,4.132001 -1.24,0 -5.785,0 -5.785,0 l -6.611,-7.851001 -2.892,-0.413 -1.653,-3.719 0.414,-2.892 -1.652,-2.066 3.718,-3.719 5.372,-0.413 4.545,-0.826 3.717,-2.478 z"
   class="obvod obvod-66" /><polygon
   style="fill:#ffffff;stroke:#000000;stroke-width:2"
   id="polygon3315"
   points="335.274,194.2 334.447,197.506 331.968,199.571 330.729,203.29 325.358,201.638 323.705,204.529 318.747,205.356 315.854,207.009 312.963,204.529 311.724,201.224 313.376,199.158 317.095,197.919 319.987,193.374 325.771,190.895 327.424,185.523 334.861,184.284 334.861,188.829 "
   transform="translate(-92.059449,-101.7325)"
   class="obvod obvod-63" /><polygon
   id="polygon3317"
   points="148.684,179.306 146.363,180.267 142.2,180.187 141.479,178.505 141.8,175.463 145.563,174.103 150.125,174.902 151.806,176.744 151.166,180.586 "
   transform="translate(-92.059449,-101.7325)"
   obvod obvod-9=""
   style="fill:#ffffff;stroke:#000000;stroke-width:2"
   class="obvod obvod-9" /><path
   style="fill:#ffffff;stroke:#000000;stroke-width:2"
   inkscape:connector-curvature="0"
   id="path3319"
   d="m 125.46155,32.971483 2.479,-3.719 -2.892,-1.652 -2.479,-4.958 -1.652,-4.545 -0.196,-4.705996 c -0.665,-0.186 -1.322,-0.369 -1.957,-0.42 -2.244,-0.182 -1.97,1.087 -2.505,2.588 -0.455,1.277 -3.56,1.436 -3.745,-0.052 -0.205,-1.649 -2.354,-1.173 -3.316,-1.625 l -3.981,4.214996 h -3.718 l -1.239,3.719 -2.892999,0.826 -0.826,3.306 1.652,2.479 0.413,4.545 0.827,3.718 4.544999,-0.826 5.784,1.653 5.784,-3.306 5.372,-3.718 4.543,2.478 z"
   class="obvod obvod-36" /><path
   style="fill:#ffffff;stroke:#000000;stroke-width:2"
   inkscape:connector-curvature="0"
   id="path3321"
   d="m 263.53555,72.388483 c -0.027,0.002 -1.663,-0.437 -2.414,-0.958 -0.57,-0.394 -1.498,-0.123 -2.145,-0.219 l -1.343,4.28 2.562,4.322 2.024,-0.981 0.857,-3.181 2.62,-3.127 c -0.664,-0.122 -1.372,-0.177 -2.161,-0.136 z"
   class="obvod obvod-75" /><path
   style="fill:#ffffff;stroke:#000000;stroke-width:2"
   inkscape:connector-curvature="0"
   id="path3323"
   d="m 273.37655,94.947484 -4.132,-4.958001 -2.065,-5.371 -4.959,-5.785 -5.784,2.893 -2.065,4.132 3.719,10.329001 2.065,3.305003 4.132,2.479013 4.958,3.719 1.066,-0.439 c 0.303,-0.627 0.294,-1.099 1.109,-1.686 1.955,-1.402 0.38,-3.364 2.715,-4.116013 0.389,-0.125003 0.661,-0.125003 0.876,-0.063 l -1.635,-4.439003 z"
   class="obvod obvod-69" /><path
   style="fill:#ffffff;stroke:#000000;stroke-width:2"
   inkscape:connector-curvature="0"
   id="path3325"
   d="m 262.20655,111.8135 -5.356,-2.819 -4.545,0.826 -5.785,-1.239 -5.783,-1.652 -5.785,0.826 -3.306,2.479 -1.239,4.131 6.611,4.133 3.719,-0.826 4.957,3.305 5.784,-0.826 4.215,0.843 c 0.145,-0.393 0.207,-0.875 0.204,-1.65 -0.005,-1.319 -0.51,-3.445 0.92,-4.31 0.775,-0.224 1.042,-0.646 0.804,-1.265 -0.177,-0.526 2.28,-1.297 4.585,-1.956 z"
   class="obvod obvod-78" /><path
   style="fill:#ffffff;stroke:#000000;stroke-width:2"
   inkscape:connector-curvature="0"
   id="path3327"
   d="m 239.49655,131.3055 -4.545,-4.132 -3.719,-2.065 -5.784,-3.306 -2.065,-5.784 h -4.959 l -3.718,2.479 -0.413,2.892 2.066,7.438 2.064,2.893 2.893,4.131 0.287,5.739 c 2.269,2.853 2.146,-1.02 4.653,-0.971 1.492,0.026 1.799,2.195 3.319,2.107 1.504,-0.088 2.716,-1.064 3.873,-1.845 1.406,-0.948 2.627,-0.126 3.791,-1.11 1.04,-0.881 1.452,-2.187 2.312,-3.195 0.452,-0.533 0.966,-0.793 1.501,-0.912 l -1.556,-4.359 z"
   class="obvod obvod-81" /><path
   style="fill:#ffffff;stroke:#000000;stroke-width:2"
   inkscape:connector-curvature="0"
   id="path3329"
   d="m 182.89155,125.9345 -4.545,-3.719 h -5.371 -3.718 l -3.306,2.479 -4.132,-1.239 -3.306,-0.827 -4.545,4.545 -3.305,1.653 -3.72,-1.24 -4.544,0.414 -3.217,4.646 c 0.495,0.036 0.989,0.062 1.485,0.063 1.491,0.474 1.262,2.312 2.39,2.583 1.786,0.431 3.502,0.434 4.89,1.773 1.003,0.969 4.36,3.942 5.523,1.463 0.538,-1.148 2.085,-1.251 3.204,-0.829 0.026,0.356 0.022,0.714 -0.01,1.069 0.217,0.167 3.055,1.39 2.778,1.547 -0.034,0.019 2.342,1.088 2.246,0.956 -0.126,0.328 -0.264,0.651 -0.41,0.972 0.518,0.733 1.185,1.312 2.002,1.737 1.398,0.849 2.797,1.804 4.445,2.169 2.623,0.583 5.309,0.871 7.992,0.986 1.256,0.62 2,0.482 2.236,-0.413 0.074,-0.144 0.145,-0.286 0.216,-0.429 1.832,0.317 0.234,2.48 2.983,0.019 0.185,-0.165 0.346,-0.329 0.496,-0.493 v -7.489 l -0.826,-4.545 v -3.719 l 2.069,-4.132 z"
   class="obvod obvod-54" /><polygon
   style="fill:#ffffff;stroke:#b2b2b2"
   id="polygon3331"
   points="134.554,93.917 130.071,92.85 127.509,96.692 118.971,97.333 114.061,95.838 114.061,91.996 116.195,84.311 111.712,82.177 111.286,78.975 120.892,76.413 123.453,71.076 128.79,69.155 133.914,71.93 140.104,71.29 142.879,72.57 145.228,68.941 151.205,72.357 158.676,71.93 161.878,67.447 167.429,67.874 167.215,70.009 164.227,71.93 162.732,75.772 160.17,77.48 156.328,78.334 154.62,80.682 148.643,83.03 146.082,86.446 141.599,88.793 138.183,90.715 "
   transform="matrix(0.79788028,0,0,0.79788028,231.13228,-4.2482069)" /><polygon
   style="fill:#ffffff;stroke:#b2b2b2"
   id="polygon3333"
   points="133.914,71.93 140.104,71.29 142.879,72.57 145.228,68.941 148.429,64.031 146.082,60.616 140.104,56.987 135.835,57.627 131.779,58.054 132.206,59.762 129.857,64.245 128.79,69.155 "
   transform="matrix(0.79788028,0,0,0.79788028,231.13228,-4.2482069)" /><polygon
   style="fill:#ffffff;stroke:#b2b2b2"
   id="polygon3335"
   points="149.497,50.796 153.979,50.369 157.822,48.235 157.822,45.246 156.541,43.752 153.339,45.459 148.856,45.459 143.093,48.021 139.891,48.021 137.329,51.01 135.621,54.852 135.835,57.627 140.104,56.987 140.318,55.493 144.587,54.639 "
   transform="matrix(0.79788028,0,0,0.79788028,231.13228,-4.2482069)" /><polygon
   style="fill:#ffffff;stroke:#b2b2b2"
   id="polygon3337"
   points="139.037,26.46 146.722,20.483 154.833,19.629 160.811,23.259 164.867,25.18 164.227,27.955 159.957,31.371 152.912,36.28 151.631,34.572 148.002,37.988 147.362,40.55 149.07,42.044 148.856,45.459 143.093,48.021 139.891,48.021 140.104,44.819 141.599,42.257 139.037,39.055 134.554,36.494 130.925,32.225 128.79,31.371 128.79,29.022 131.779,27.955 "
   transform="matrix(0.79788028,0,0,0.79788028,231.13228,-4.2482069)" /><polygon
   style="fill:#ffffff;stroke:#b2b2b2"
   id="polygon3339"
   points="186,68.514 188.135,66.379 186.427,64.245 183.865,63.391 183.225,61.256 178.742,60.402 173.833,62.964 169.776,61.683 166.788,56.56 161.665,55.493 156.968,56.347 155.26,60.189 152.058,64.458 148.429,63.818 146.935,65.312 144.8,68.728 151.205,72.57 158.889,72.143 161.878,67.447 167.429,67.66 167.429,69.795 164.227,71.503 162.732,75.986 167.642,75.986 170.844,75.772 173.833,77.267 174.259,80.682 177.675,81.963 182.158,81.537 184.506,78.547 189.203,74.705 189.203,72.357 "
   transform="matrix(0.79788028,0,0,0.79788028,231.13228,-4.2482069)" /><polygon
   style="fill:#ffffff;stroke:#b2b2b2;stroke-width:1;stroke-miterlimit:4;stroke-opacity:1;stroke-dasharray:none"
   id="polygon3341"
   points="166.788,56.56 169.776,61.683 173.833,62.964 178.742,60.402 178.529,58.694 177.035,55.493 172.338,53.358 166.147,53.145 159.744,50.796 157.395,48.448 154.407,50.156 149.71,50.583 144.587,54.639 140.318,55.706 140.318,57.2 143.52,59.122 146.294,60.829 148.429,63.818 152.058,64.458 155.26,60.189 156.968,56.347 161.665,55.493 "
   transform="matrix(0.79788028,0,0,0.79788028,231.13228,-4.2482069)" /><polygon
   style="fill:#ffffff;stroke:#b2b2b2"
   id="polygon3343"
   points="98.477,49.942 102.106,52.931 101.252,54.852 96.77,56.56 95.702,59.335 100.398,61.683 105.735,61.683 108.938,58.054 111.712,57.414 115.128,53.358 120.892,52.718 126.015,51.65 124.094,48.448 126.442,46.74 126.442,43.752 128.79,39.055 128.79,31.371 128.79,29.022 122.386,29.022 119.184,31.371 120.251,35.426 119.184,39.055 115.128,40.55 109.791,36.067 106.162,36.92 100.398,39.055 96.342,40.977 92.5,40.763 93.567,42.898 96.983,45.673 "
   transform="matrix(0.79788028,0,0,0.79788028,231.13228,-4.2482069)" /><polygon
   style="fill:#ffffff;stroke:#000000;stroke-width:2"
   id="polygon3345"
   points="126.229,51.864 129.857,52.718 132.633,54.852 131.992,59.548 129.857,63.604 129.217,68.941 123.453,71.29 120.892,76.413 114.701,77.907 111.286,78.761 111.712,82.604 107.443,81.963 105.522,78.334 108.51,74.278 108.297,70.436 104.668,70.436 100.398,66.379 100.398,61.47 105.735,61.47 108.938,58.054 111.499,57.414 114.701,53.358 121.746,52.931 "
   transform="matrix(0.79788028,0,0,0.79788028,231.13228,-4.2482069)"
   class="obvod obvod-21" /><polygon
   style="fill:#ffffff;stroke:#000000;stroke-width:2"
   id="polygon3347"
   points="183.012,37.348 178.529,36.28 172.765,34.359 171.912,28.809 167.642,27.955 163.799,27.955 160.17,31.371 153.126,36.28 151.631,34.572 148.002,37.774 147.575,40.55 149.283,42.044 148.643,45.886 153.126,45.886 156.541,43.965 157.822,45.033 157.822,48.448 159.957,51.01 166.147,53.145 172.125,53.358 177.035,55.493 178.529,58.054 178.742,60.829 183.012,61.256 185.146,59.976 189.416,57.841 194.752,56.56 197.314,52.931 196.247,49.516 192.618,45.033 187.922,43.538 185.787,39.055 "
   transform="matrix(0.79788028,0,0,0.79788028,231.13228,-4.2482069)"
   class="obvod obvod-24" /><polygon
   style="fill:#ffffff;stroke:#000000;stroke-width:2"
   id="polygon3349"
   points="129.857,52.718 132.633,54.852 132.206,58.268 135.835,57.841 135.621,54.852 137.329,51.01 140.104,48.235 140.104,44.605 141.812,42.471 139.037,39.269 134.767,36.28 130.925,32.225 128.79,31.371 128.577,39.269 126.655,43.111 126.655,46.74 124.094,48.235 126.229,51.864 "
   transform="matrix(0.79788028,0,0,0.79788028,231.13228,-4.2482069)"
   class="obvod obvod-27" /><polygon
   style="fill:#ffffff;stroke:#b2b2b2"
   id="polygon3351"
   points="252.672,72.25 251.392,68.621 255.66,67.34 260.783,69.048 265.479,62.644 266.334,58.801 263.345,57.947 258.862,55.386 253.312,56.026 249.896,60.083 246.054,58.801 240.29,60.723 234.954,61.577 235.594,64.779 240.931,70.329 246.908,72.037 249.684,75.025 "
   transform="matrix(0.79788028,0,0,0.79788028,215.9082,-2.0337999)" /><polygon
   style="fill:#ffffff;stroke:#b2b2b2"
   id="polygon3353"
   points="282.771,75.025 282.771,69.688 283.838,66.7 281.276,64.352 287.04,58.375 284.479,55.813 285.759,49.836 286.187,44.926 284.052,42.791 279.995,46.42 277.647,50.263 274.231,48.982 273.378,45.566 268.468,41.297 265.267,41.937 264.84,45.566 267.614,53.678 265.479,62.217 260.783,68.834 255.66,67.127 251.178,68.194 252.672,72.25 255.446,72.891 257.155,75.239 258.009,79.721 261.424,81.216 265.479,81.216 266.974,82.497 267.827,86.125 271.671,87.406 273.806,88.687 278.501,86.553 279.782,83.351 282.558,83.351 285.759,79.295 "
   transform="matrix(0.79788028,0,0,0.79788028,215.9082,-2.0337999)" /><polygon
   style="fill:#ffffff;stroke:#000000;stroke-width:2"
   id="polygon3355"
   points="258.862,27.208 255.02,28.275 252.244,32.758 251.178,36.173 245.84,39.375 243.279,43.645 245.2,46.847 245.2,53.038 244.133,59.229 246.267,58.801 250.109,60.083 253.525,56.026 259.075,55.386 263.558,57.947 266.547,58.801 267.827,53.678 264.839,45.353 265.693,42.151 268.682,41.51 268.896,38.949 263.772,32.971 264.413,27.848 "
   transform="matrix(0.79788028,0,0,0.79788028,215.9082,-2.0337999)"
   class="obvod obvod-60" /><polygon
   style="fill:#ffffff;stroke:#b2b2b2"
   id="polygon3357"
   points="334.085,81.993 334.75,78.332 330.923,76.002 329.759,70.677 331.09,66.85 335.583,67.849 337.912,69.679 340.741,69.346 342.238,63.189 345.233,63.189 348.063,66.517 351.723,66.517 354.054,68.847 350.06,73.173 346.898,72.175 344.568,73.506 340.907,72.84 337.912,74.338 340.574,78.997 339.077,82.326 "
   transform="matrix(0.79788028,0,0,0.79788028,209.81856,-6.1858199)" /><polygon
   style="fill:#ffffff;stroke:#b2b2b2"
   id="polygon3359"
   points="363.704,49.211 366.866,57.032 367.198,62.69 369.861,62.69 372.024,61.192 374.521,63.022 373.355,66.351 375.519,70.844 374.188,73.839 372.524,77.833 369.529,82.159 363.704,82.825 353.72,81.328 350.892,84.156 349.561,87.484 340.075,95.305 335.416,92.31 333.087,88.316 329.592,87.484 330.425,85.154 333.919,82.326 339.077,82.326 340.408,79.164 337.912,74.504 340.741,72.84 344.734,73.673 346.898,72.008 350.393,73.173 354.054,68.847 351.89,66.684 348.063,66.517 345.4,63.022 342.072,63.189 341.573,58.197 338.578,55.867 338.578,52.706 340.241,50.043 344.901,47.381 348.728,44.053 352.057,43.055 357.714,36.731 360.043,38.728 358.047,40.891 357.049,44.219 359.544,46.382 362.374,46.216 "
   transform="matrix(0.79788028,0,0,0.79788028,209.81856,-6.1858199)" /><polygon
   style="fill:#ffffff;stroke:#000000;stroke-width:2"
   id="polygon3361"
   points="342.238,63.522 341.573,58.031 338.744,55.867 338.744,52.54 340.241,49.877 344.901,47.714 348.562,44.053 352.057,43.388 357.714,36.564 357.714,33.237 352.888,29.243 350.393,22.753 343.403,20.59 338.91,24.251 332.421,27.413 328.095,33.237 326.597,43.72 318.11,47.714 313.617,54.536 318.11,64.354 325.266,58.364 328.76,60.027 328.594,66.018 335.583,67.849 338.079,69.679 340.741,69.18 "
   transform="matrix(0.79788028,0,0,0.79788028,209.81856,-6.1858199)"
   class="obvod obvod-72" />
</svg>